<svg xmlns="http://www.w3.org/2000/svg" viewBox="0 0 80 80"><path fill="#f78f8f" d="M34.316 39.5L16.79 2.5 29.685 2.5 47.35 39.5z"/><path fill="#c74343" d="M29.369,3l17.188,36H34.633L17.58,3H29.369 M30,2H16l18,38h14.143L30,2L30,2z"/><path fill="#f78f8f" d="M32.65 39.5L50.315 2.5 63.21 2.5 45.684 39.5z"/><path fill="#c74343" d="M62.42,3L45.367,39H33.443L50.631,3H62.42 M64,2H50L31.857,40H46L64,2L64,2z"/><path fill="#ffc49c" d="M40,77.5c-11.855,0-21.5-9.645-21.5-21.5S28.145,34.5,40,34.5S61.5,44.145,61.5,56 S51.855,77.5,40,77.5z"/><path fill="#b08159" d="M40,35c11.579,0,21,9.421,21,21s-9.421,21-21,21s-21-9.421-21-21S28.421,35,40,35 M40,34 c-12.15,0-22,9.85-22,22s9.85,22,22,22s22-9.85,22-22S52.15,34,40,34L40,34z"/><path fill="#b08159" d="M30 46H34V68H30zM46 46H50V68H46zM38 46H42V68H38z"/><path fill="#b08159" d="M26 46H54V48H26zM26 66H54V68H26z"/></svg>