<?xml version="1.0" encoding="utf-8"?>
<!-- Generator: Adobe Illustrator 19.2.1, SVG Export Plug-In . SVG Version: 6.00 Build 0)  -->
<svg version="1.1" id="layer" xmlns="http://www.w3.org/2000/svg" xmlns:xlink="http://www.w3.org/1999/xlink" x="0px" y="0px"
	 viewBox="0 0 652 652" style="enable-background:new 0 0 652 652;" xml:space="preserve">
<style type="text/css">
	.st0{fill:#00053E;}
	.st1{fill:#62BB46;}
</style>
<path class="st0" d="M315.9,333.4c-7.3,0-14.5-1.6-21.2-4.7l2.2-12.6c6,3.2,12.3,5.4,19.3,5.7c4.1,0,7.6-1.9,7.6-5.4
	c0-3.5-1.9-5.4-10.1-8.2c-12-4.7-17.7-8.5-17.7-18.9c0-11.4,9.2-17.7,20.5-17.7c6.3-0.3,12.6,1.3,18,3.8l-2.2,12.6
	c-4.7-3.2-10.4-4.7-16.1-4.7c-4.7,0-6.6,1.9-6.6,4.7s1.9,5.1,8.8,7.6c13.3,4.7,18.3,9.2,18.3,19.3
	C337.4,327.7,327.9,333.7,315.9,333.4L315.9,333.4z M384.7,333.4l-4.1-13.3h-21.2l-4.1,12.3h-14.5l21.5-60.9h16.7l20.8,58.7
	L384.7,333.4z M369.6,286.6l-6.9,21.8h14.2L369.6,286.6z M428,333.7c-14.8,0-25.3-8.2-25.3-24.9v-36.6h15.2v36.6
	c0,7.9,3.5,12.3,10.4,12.3c6.6,0,10.4-4.7,10.4-12v-36.9h15.2v36.6C453.6,325.5,442.8,334,428,333.7L428,333.7z M485.2,332.7H464
	v-60.6h20.8c20.8,0,32.2,12,32.2,30.3S505.7,332.7,485.2,332.7z M484.5,283.8h-5.4V321h5.4c10.7,0,17.4-5.7,17.4-18.3
	S494.9,283.8,484.5,283.8z M525.3,332.7v-60.6h37.6v12h-23.1v10.7h17.7l1.9,12.6h-19.6v13.3h23.7v12
	C563.5,332.7,525.3,332.7,525.3,332.7z M620,330.8l-15.2,2.5l-13.3-21.2h-4.7V333h-15.2v-60.9h21.2c14.5,0,23.4,6.6,23.4,19.3
	c0.3,7.6-4.1,14.8-11.4,17.4L620,330.8L620,330.8z M591.9,283.5h-5.1v17.7h4.7c6.3,0,10.4-3.2,10.4-8.8S598.5,283.5,591.9,283.5z
	 M45.3,333.7c-14.8,0-25.3-8.2-25.3-24.9v-36.3h15.5V309c0,7.6,3.5,12.3,10.1,12.3s10.4-4.7,10.4-12v-36.9h15.2V309
	C70.8,325.8,60.1,333.7,45.3,333.7z M100.5,333H80.3v-60.6h20.5c13.9,0,20.5,6,20.5,15.5c0,5.7-3.5,10.7-8.8,12.6
	c6.6,1.6,11.4,7.9,10.7,14.8C123.9,327,115.1,333,100.5,333z M99.9,283.1h-5.4V297h5.1c5.7,0,8.5-2.8,8.5-6.9
	C108.1,286,105.9,283.1,99.9,283.1z M99.9,306.5h-5.4V322h5.7c6,0,9.5-2.5,9.5-7.9C109.7,308.7,106.2,306.5,99.9,306.5z M159.3,334
	c-18.3,0-29.4-12.3-29.4-31.3s11.7-31.6,29.1-31.6c5.7-0.3,11.7,1.3,16.7,3.8l-2.2,13.6c-3.8-3.2-8.5-4.7-13.6-5.1
	c-9.2,0-15.2,6.9-15.2,18.9s6.6,18.9,16.1,18.9c5.1-0.3,9.8-1.9,13.9-4.4l1.9,12.3C170.9,332.4,165.3,334,159.3,334z M108.1,388.6
	c-3.2,0-6-0.6-8.8-1.9l0.6-3.8c2.5,1.3,5.4,2.2,8.2,2.2c2.8,0,5.1-1.6,5.1-3.5c0-1.9-1.6-2.8-5.1-4.1c-5.4-1.6-8.2-3.5-8.2-7.3
	c0.3-4.4,3.8-7.6,8.2-7.6h0.3c2.5,0,5.1,0.6,7.6,1.6l-0.9,4.4c-2.2-0.9-4.4-1.6-6.6-1.9c-2.5,0-4.1,1.6-4.1,2.8
	c0,2.2,1.6,2.5,5.4,3.8c5.4,1.6,7.9,3.5,7.9,7.3C117.3,386.1,113.5,388.9,108.1,388.6z M136.2,389.2c-7.6,0-12-5.4-12-13.3
	s5.1-13.3,12-13.3c2.5,0,5.1,0.6,7.6,1.9l-0.9,4.1c-1.9-1.3-4.1-2.2-6.3-2.2c-5.1,0-7.9,3.5-7.9,9.2c0,5.7,2.8,9.2,7.9,9.2
	c2.5,0,4.7-0.9,6.6-2.5l0.6,3.8C141.6,388.3,139.1,388.9,136.2,389.2z M168.1,388.3v-11.1h-11.7v11.1h-4.7V363h4.7v10.1h11.7v-9.8
	h4.7v25.3C172.8,388.6,168.1,388.3,168.1,388.3z M193.1,389.2c-6.6,0-12.3-5.7-12-12.3v-0.6c-0.6-6.6,4.4-12.3,11.1-12.9
	c6.6-0.6,12.3,4.4,12.9,11.1v1.9c0.6,6.6-4.7,12.6-11.4,13.3C193.7,389.2,193.4,389.2,193.1,389.2z M193.1,366.5
	c-5.1,0-7.6,3.8-7.6,9.2c0,5.4,2.8,9.2,7.6,9.2s7.6-4.1,7.6-9.2C200.6,370.6,197.8,366.5,193.1,366.5z M224.3,389.2
	c-6.6,0-12.3-5.7-12-12.3v-0.6c-0.6-6.6,4.4-12.3,11.1-12.9c6.6-0.6,12.3,4.4,12.9,11.1v1.9c0.6,6.6-4.7,12.6-11.4,13.3
	C224.9,389.2,224.6,389.2,224.3,389.2z M224.3,366.5c-5.1,0-7.6,3.8-7.6,9.2c0,5.4,2.8,9.2,7.6,9.2s7.6-4.1,7.6-9.2
	C231.9,370.6,229.1,366.5,224.3,366.5z M244.5,388.3V363h4.7v21.5h9.5l0.6,3.8H244.5z M291.9,389.2c-6.6,0-12.3-5.7-12-12.3v-0.6
	c-0.6-6.6,4.4-12.3,11.1-12.9c6.6-0.6,12.3,4.4,12.9,11.1v1.9c0.6,6.6-4.7,12.6-11.4,13.3C292.2,389.2,292.2,389.2,291.9,389.2z
	 M291.9,366.5c-5.1,0-7.6,3.8-7.6,9.2c0,5.4,2.8,9.2,7.6,9.2c4.7,0,7.6-4.1,7.6-9.2C299.5,370.6,296.6,366.5,291.9,366.5z
	 M316.8,367.1v6.9h8.5l0.6,3.8h-9.2v10.7h-4.7v-25.3h15.2v3.8C327.3,367.1,316.8,367.1,316.8,367.1z M357.3,388.3h-8.2V363h8.2
	c5.7,0,8.5,2.5,8.5,6.3c0.3,2.5-1.3,4.7-3.5,5.4c2.8,0.3,5.1,3.2,5.1,6C366.7,386.1,362.9,388.3,357.3,388.3z M356.9,367.1h-3.5v6.3
	h3.5c3.2,0,4.7-0.9,4.7-3.5C361.7,368.1,360.1,367.1,356.9,367.1z M357.3,377.2h-3.8v7.9h3.8c3.2,0,5.4-0.9,5.4-3.8
	C362.6,378.5,360.7,377.2,357.3,377.2z M385.1,389.2c-5.4,0.6-9.8-3.5-10.4-8.5v-17.4h4.4v15.2c0,4.1,1.9,6.6,5.7,6.6s6-2.5,6-6.6
	v-15.2h4.7v15.2c0.3,5.4-3.5,10.1-9.2,10.7H385.1z M412.2,388.6c-3.2,0-6-0.6-8.8-1.9l0.6-3.8c2.5,1.3,5.4,2.2,8.2,2.2
	c2.8,0,5.1-1.6,5.1-3.5c0-1.9-1.3-2.8-5.1-4.1c-5.4-1.9-8.2-3.5-8.2-7.6c0.3-4.4,3.8-7.6,8.2-7.6h0.3c2.5,0,5.1,0.6,7.6,1.6
	l-0.6,4.1c-2.2-0.9-4.4-1.6-6.6-1.9c-2.5,0-4.1,1.6-4.1,2.8c0,2.2,1.3,2.5,5.4,3.8c5.4,1.9,7.9,3.5,7.9,7.6
	C421.4,386.1,417.9,388.6,412.2,388.6z M429.9,388.3V363h4.7v25.3H429.9z M461.2,388.3l-12.6-18.9v18.9h-4.4V363h4.7l12,18v-18h4.4
	v25.3H461.2z M474.4,388.3V363h15.5v3.8h-11.4v6.3h8.8l0.6,3.8h-9.5v7.6h11.7v3.8H474.4L474.4,388.3z M505.4,388.6
	c-3.2,0-6-0.6-8.8-1.9l0.6-3.8c2.5,1.3,5.4,2.2,8.2,2.2c2.8,0,5.1-1.6,5.1-3.5c0-1.9-1.3-2.8-5.1-4.1c-5.4-1.9-8.2-3.5-8.2-7.6
	c0.3-4.4,3.8-7.6,8.2-7.6h0.3c2.5,0,5.1,0.6,7.6,1.6l-0.6,4.1c-2.2-0.9-4.4-1.6-6.6-1.9c-2.5,0-4.4,1.6-4.4,2.8
	c0,2.2,1.3,2.5,5.4,3.8c5.4,1.9,7.9,3.5,7.9,7.6C514.8,386.1,511.1,388.6,505.4,388.6z M530,388.6c-3.2,0-6-0.6-8.8-1.9l0.6-3.8
	c2.5,1.3,5.4,2.2,8.2,2.2c2.8,0,5.1-1.6,5.1-3.5c0-1.9-1.3-2.8-5.1-4.1c-5.4-1.9-8.2-3.5-8.2-7.6c0.3-4.4,3.8-7.6,8.2-7.6h0.3
	c2.5,0,5.1,0.6,7.6,1.6l-0.6,4.1c-2.2-0.9-4.4-1.6-6.6-1.9c-2.5,0-4.4,1.6-4.4,2.8c0,2.2,1.3,2.5,5.4,3.8c5.4,1.9,7.9,3.5,7.9,7.6
	C539.2,386.1,535.7,388.6,530,388.6z M235.7,317.9l-18.9,14.5V273l18.9,16.4V317.9z"/>
<path class="st1" d="M257.8,334.6l14.5,11.4v-88.4l-14.5,12.6V334.6z M214.5,334.6L199.7,346v-88.4l14.8,12.6V334.6z M255.9,268.9
	L272,255h-72l15.8,13.9H255.9z"/>
</svg>
