<svg xmlns="http://www.w3.org/2000/svg" id="Layer_1" viewBox="-84.8 331.6 359.8 129.4"><style>.st0{fill:#2070b6}</style><path d="M77.5 370.1l5.9-21.9c.5-.1 1.1-.1 1.8-.1s1.3.1 1.8.2l.2.3-7.4 25.1c-1.3.1-2.3.1-3.1.1-.7 0-1.3-.1-1.8-.4-.5-.3-.8-.8-1-1.5L67 348.5c.9-.4 1.7-.6 2.4-.6 1.1 0 1.8.6 2.2 1.9l3.9 13.5c.6 2.1 1.1 4.3 1.7 6.4 0 .2.1.4.3.4zM103.3 371.9c-.3.9-.8 1.6-1.5 2-1.5-.3-2.5-1-3-2.3-1.8 1.7-3.6 2.5-5.4 2.5-.9 0-1.8-.1-2.5-.4-.7-.3-1.3-.7-1.8-1.2s-.8-1.1-1.1-1.8c-.2-.7-.4-1.3-.4-2.1 0-2 .7-3.6 2-4.6s3-1.6 5.2-1.6c.6 0 1.2 0 1.8.1.6 0 1.2.1 1.8.2v-1.5c0-2.2-1-3.3-3.1-3.3-1.4 0-3.4.5-5.9 1.5-.7-.6-1.1-1.6-1.1-2.8 2.5-1.1 5.1-1.7 7.7-1.7 1.9 0 3.4.5 4.5 1.5s1.6 2.6 1.6 4.7v7.6c.2 1.5.6 2.6 1.2 3.2zm-9.2-.9c1.6 0 3.1-.7 4.4-2.2v-3.5c-.5-.1-1-.1-1.6-.1h-1.7c-1.1 0-2 .3-2.7.8-.6.6-1 1.3-1 2.2s.2 1.6.7 2.1 1.1.7 1.9.7zM122.7 361v8.7c0 1.5.2 2.6.6 3.4-.6.5-1.4.8-2.3.8-.8 0-1.4-.2-1.7-.6-.3-.4-.5-1-.5-1.8V362c0-1.3-.2-2.2-.5-2.8-.3-.5-.9-.8-1.7-.8s-1.7.2-2.5.6-1.6 1-2.3 1.7v12.9c-.4.1-1.1.1-1.9.1h-1.1s-.6-.1-.9-.1v-18.3l.2-.2h1.5c1.3 0 2.1.8 2.1 2.3 1.8-1.7 3.8-2.5 5.9-2.5 1.7 0 2.9.6 3.7 1.7 1 1 1.4 2.5 1.4 4.4zM138.1 362.3v-.4c0-2.8-1.1-4.2-3.3-4.2-1.2 0-2.1.6-2.7 1.7-.6 1.1-1 2.8-1 5.1 0 4.3 1.4 6.4 4.2 6.4 1.4 0 2.9-.6 4.5-1.9.3.2.7.5 1 1s.5.9.6 1.3c-1.8 1.8-4.1 2.8-6.7 2.8-1.3 0-2.5-.2-3.4-.7-1-.5-1.8-1.2-2.4-2-.6-.8-1.1-1.9-1.4-3.1-.3-1.2-.5-2.6-.5-4 0-1.5.2-2.9.6-4 .4-1.1 1-2.2 1.7-3 .7-.8 1.5-1.4 2.5-1.8.9-.4 1.9-.6 3-.6s2 .2 2.9.5c.8.3 1.5.7 2.1 1.3.6.5 1 1.1 1.3 1.8.3.7.5 1.4.5 2.1 0 1.4-.6 2.1-1.9 2.1-.7-.2-1.2-.3-1.6-.4zM157.9 372c-1.4 1.4-3.2 2.1-5.4 2.1-1.3 0-2.4-.2-3.4-.7s-1.8-1.1-2.5-2c-.7-.9-1.2-1.9-1.6-3.1-.4-1.2-.5-2.5-.5-4 0-1.4.2-2.8.5-4 .4-1.2.9-2.2 1.6-3.1.7-.9 1.5-1.5 2.5-2s2.1-.7 3.4-.7 2.4.2 3.4.7 1.8 1.1 2.5 2 1.2 1.9 1.6 3.1c.4 1.2.5 2.5.5 4 .1 3.4-.8 6-2.6 7.7zm-5.4-14.4c-2.7 0-4 2.3-4 6.8s1.3 6.8 4 6.8 4.1-2.3 4.1-6.8-1.3-6.8-4.1-6.8zM165 367.8v-8.7c0-1.5-.2-2.6-.6-3.4.6-.5 1.4-.8 2.4-.8 1.4 0 2.1.8 2.1 2.4v9.5c0 1.3.2 2.2.5 2.8.3.5.9.8 1.7.8.8 0 1.7-.2 2.5-.6s1.6-1 2.3-1.7v-13c.7-.1 1.3-.1 1.9-.1s1.2 0 2 .1v13.2c0 1.7.3 2.9 1 3.5-.3.9-.8 1.5-1.5 1.9-1.6-.3-2.6-1.2-3.1-2.7-1.9 1.8-4 2.8-6.2 2.8-1.6 0-2.9-.6-3.7-1.7-.9-1-1.3-2.4-1.3-4.3zM191.4 370.5l4.4-15.3c.5-.1 1-.1 1.7-.1.6 0 1.2.1 1.7.3l.1.1c-1.9 6.3-3.8 12.3-5.7 18.1-.7.1-1.6.2-2.5.2s-1.6-.1-2-.4c-.4-.3-.7-.8-1-1.7l-5.1-16.2c.8-.4 1.6-.6 2.2-.6 1.1 0 1.8.5 2.1 1.6l2.5 8.2c.5 1.5 1 3.3 1.5 5.4-.2.3 0 .4.1.4zM215.6 365.6h-11c.1 1.7.4 3 1.1 4 .7.9 1.8 1.4 3.3 1.4.7 0 1.5-.1 2.4-.3.9-.2 1.7-.6 2.7-1.1.6.6 1 1.4 1.2 2.5-2 1.4-4.3 2.1-7 2.1-1.4 0-2.6-.2-3.6-.7s-1.8-1.2-2.4-2.1c-.6-.9-1.1-1.9-1.3-3.1-.3-1.2-.4-2.5-.4-3.9s.2-2.6.5-3.8.8-2.2 1.5-3c.6-.8 1.4-1.5 2.4-2s2-.7 3.2-.7 2.3.2 3.2.6c.9.4 1.7 1 2.4 1.7.6.7 1.1 1.6 1.5 2.5.3 1 .5 2 .5 3.2 0 .5 0 1-.1 1.5.1.2 0 .7-.1 1.2zm-7.1-8c-2.4 0-3.6 1.8-3.8 5.3h7.5v-.5c0-1.4-.3-2.6-.9-3.5-.6-.9-1.5-1.3-2.8-1.3zM219.6 357c.2-.9.7-1.6 1.4-2.1 1.7.4 2.8 1.5 3.4 3.3 1-2.2 2.6-3.3 4.9-3.3.6 0 1.3.1 2 .2 0 1.4-.3 2.7-.9 3.7-.2-.1-.7-.1-1.5-.2-1.7 0-3 .9-4 2.8v12.2c-.5.1-1.1.1-1.9.1s-1.4-.1-1.9-.1v-12.8c-.1-1.7-.6-3-1.5-3.8z" class="st0"/><g><path d="M67.4 412.3c.1-1.2.7-2.2 1.7-3.1 2.6 1.7 5.1 2.5 7.5 2.5 1.5 0 2.6-.3 3.5-1 .9-.6 1.3-1.5 1.3-2.5 0-1.7-1.1-3.1-3.4-4l-4.4-1.9c-3.4-1.5-5.1-3.6-5.1-6.5 0-1 .2-2 .6-2.9.4-.9 1-1.7 1.8-2.3.7-.7 1.6-1.2 2.7-1.5 1.1-.3 2.2-.5 3.5-.5 2.6 0 5.2.6 7.8 1.9 0 1.2-.5 2.2-1.5 3.1-2.4-1.2-4.5-1.8-6.4-1.8-1.3 0-2.4.3-3.2 1-.8.7-1.2 1.4-1.2 2.3s.3 1.6.8 2.1 1.3 1 2.3 1.4l4.3 1.9c1.9.8 3.3 1.8 4.2 2.9.9 1.1 1.4 2.5 1.4 4 0 2.2-.8 4-2.3 5.4-1.6 1.4-3.9 2.1-7.1 2.1-3.3.2-6.2-.7-8.8-2.6zM99.7 403.3v-.4c0-2.8-1.1-4.2-3.3-4.2-1.2 0-2.1.6-2.7 1.7-.6 1.1-1 2.8-1 5.1 0 4.3 1.4 6.4 4.2 6.4 1.4 0 2.9-.6 4.5-1.9.3.2.7.5 1 1s.5.9.6 1.3c-1.8 1.8-4.1 2.8-6.7 2.8-1.3 0-2.5-.2-3.4-.7-1-.5-1.8-1.2-2.4-2-.6-.9-1.1-1.9-1.4-3.1-.3-1.2-.5-2.6-.5-4 0-1.5.2-2.9.6-4 .4-1.2 1-2.2 1.7-3 .7-.8 1.5-1.4 2.5-1.8.9-.4 1.9-.6 3-.6s2 .2 2.9.5c.8.3 1.5.7 2.1 1.3s1 1.1 1.3 1.8c.3.7.5 1.4.5 2.1 0 1.4-.6 2.1-1.9 2.1-.7-.2-1.2-.3-1.6-.4zM122.1 402v8.7c0 1.5.2 2.6.6 3.4-.7.5-1.5.8-2.3.8s-1.4-.2-1.7-.6c-.3-.4-.5-1-.5-1.8V403c0-1.3-.2-2.2-.5-2.8-.3-.5-.9-.8-1.7-.8s-1.7.2-2.5.6-1.6 1-2.3 1.7v12.9c-.2.1-.5.1-.9.1h-2s-.6-.1-.9-.1v-27.1l.2-.2h1.5c.8 0 1.3.2 1.6.6.3.4.4 1 .4 1.9v8.7c1.8-1.6 3.8-2.5 5.9-2.5 1.7 0 2.9.6 3.7 1.7 1 1 1.4 2.5 1.4 4.3zM140 413.1c-1.4 1.4-3.2 2.1-5.4 2.1-1.3 0-2.4-.2-3.4-.7s-1.8-1.1-2.5-2-1.2-1.9-1.6-3.1c-.4-1.2-.5-2.5-.5-4 0-1.4.2-2.8.5-4 .4-1.2.9-2.2 1.6-3.1.7-.9 1.5-1.5 2.5-2s2.1-.7 3.4-.7c1.3 0 2.4.2 3.4.7s1.8 1.1 2.5 2c.7.9 1.2 1.9 1.6 3.1.4 1.2.5 2.5.5 4 0 3.4-.8 5.9-2.6 7.7zm-5.4-14.4c-2.7 0-4 2.3-4 6.8s1.3 6.8 4 6.8 4.1-2.3 4.1-6.8c0-4.6-1.4-6.8-4.1-6.8zM159.4 413.1c-1.4 1.4-3.2 2.1-5.4 2.1-1.3 0-2.4-.2-3.4-.7s-1.8-1.1-2.5-2-1.2-1.9-1.6-3.1c-.4-1.2-.5-2.5-.5-4 0-1.4.2-2.8.5-4 .4-1.2.9-2.2 1.6-3.1.7-.9 1.5-1.5 2.5-2s2.1-.7 3.4-.7 2.4.2 3.4.7 1.8 1.1 2.5 2c.7.9 1.2 1.9 1.6 3.1.4 1.2.5 2.5.5 4 0 3.4-.8 5.9-2.6 7.7zm-5.4-14.4c-2.7 0-4 2.3-4 6.8s1.3 6.8 4 6.8 4.1-2.3 4.1-6.8c0-4.6-1.4-6.8-4.1-6.8zM171.8 411.7h1.4c.2.6.3 1.2.3 1.7s0 .9-.1 1.1c-1 .2-2.1.3-3.2.3-2.5 0-3.7-1.3-3.7-3.8v-23.5l.3-.2h1.5c.8 0 1.3.2 1.6.6.3.4.5 1 .5 1.9v20.4c-.1 1 .4 1.5 1.4 1.5zM194.7 414.8l-8.2-.1-.2-.3v-25l.2-.3 7.8-.1c2.7 0 4.7.6 6.1 1.8 1.4 1.2 2 2.8 2 5 0 1.2-.3 2.3-1 3.2-.6.9-1.5 1.6-2.5 2 .6.2 1.2.5 1.8.9.6.4 1.1.9 1.5 1.5.4.6.8 1.2 1 1.9.3.7.4 1.4.4 2.2 0 2.2-.7 3.9-2.2 5.3-1.5 1.3-3.7 2-6.7 2zm-4.5-22.8v7.7h3.9c.8 0 1.5-.1 2-.3.5-.2 1-.5 1.3-.8.3-.3.6-.8.7-1.2.1-.5.2-1 .2-1.5 0-2.5-1.4-3.8-4.2-3.8h-2.4c-.6 0-1.1 0-1.5-.1zm0 19.8h4.5c.9 0 1.7-.1 2.3-.4.6-.2 1.1-.6 1.5-1 .4-.4.6-.9.8-1.4.2-.5.2-1.1.2-1.7 0-.5-.1-1.1-.3-1.6-.2-.5-.5-1-.9-1.4-.4-.4-.9-.8-1.6-1-.6-.3-1.4-.4-2.3-.4h-4.3l.1 8.9zM220.5 413.1c-1.4 1.4-3.2 2.1-5.4 2.1-1.3 0-2.4-.2-3.4-.7s-1.8-1.1-2.5-2-1.2-1.9-1.6-3.1c-.4-1.2-.5-2.5-.5-4 0-1.4.2-2.8.5-4 .4-1.2.9-2.2 1.6-3.1.7-.9 1.5-1.5 2.5-2s2.1-.7 3.4-.7 2.4.2 3.4.7 1.8 1.1 2.5 2c.7.9 1.2 1.9 1.6 3.1.4 1.2.5 2.5.5 4 .1 3.4-.8 5.9-2.6 7.7zm-5.4-14.4c-2.7 0-4 2.3-4 6.8s1.3 6.8 4 6.8 4.1-2.3 4.1-6.8c0-4.6-1.3-6.8-4.1-6.8zM242 412.9c-.3.9-.8 1.6-1.5 2-1.5-.3-2.5-1-3-2.3-1.8 1.7-3.6 2.5-5.4 2.5-.9 0-1.8-.1-2.5-.4-.7-.3-1.3-.7-1.8-1.2s-.8-1.1-1.1-1.8c-.3-.7-.4-1.3-.4-2.1 0-2 .7-3.6 2-4.6s3-1.6 5.2-1.6c.6 0 1.2 0 1.8.1.6 0 1.2.1 1.8.2v-1.5c0-2.2-1-3.3-3.1-3.3-1.4 0-3.4.5-5.9 1.5-.7-.6-1.1-1.6-1.1-2.8 2.5-1.1 5.1-1.7 7.7-1.7 1.9 0 3.4.5 4.5 1.5s1.6 2.6 1.6 4.7v7.6c.2 1.6.5 2.6 1.2 3.2zm-9.2-.8c1.6 0 3.1-.7 4.4-2.2v-3.5c-.5-.1-1-.1-1.6-.1h-1.7c-1.1 0-2 .3-2.7.8-.6.6-1 1.3-1 2.2s.2 1.6.7 2.1c.5.4 1.1.7 1.9.7zM245.6 398c.2-.9.7-1.6 1.4-2.1 1.7.4 2.8 1.5 3.4 3.3 1-2.2 2.6-3.3 4.9-3.3.6 0 1.3.1 2 .2 0 1.4-.3 2.7-.9 3.7-.2-.1-.7-.1-1.5-.2-1.7 0-3 .9-4 2.8v12.2c-.5.1-1.1.1-1.9.1s-1.4-.1-1.9-.1v-12.7c-.1-1.7-.6-3-1.5-3.9zM266 395.9c1.3 0 2.7.4 4.2 1.2v-9.7l.3-.2h1.5c.8 0 1.3.2 1.6.6.3.4.4 1 .4 1.9v19.7c0 1.7.4 2.9 1 3.5-.1.3-.3.7-.6 1.1-.3.4-.6.7-.9.9-1.4-.3-2.4-1-2.9-2.3-1.5 1.7-3.3 2.5-5.4 2.5s-3.7-.9-4.8-2.6c-1.1-1.7-1.6-4.1-1.6-7.1 0-1.5.2-2.9.6-4 .4-1.2.9-2.2 1.5-3 .6-.8 1.4-1.4 2.3-1.9.9-.4 1.8-.6 2.8-.6zm.1 16c1.6 0 3-.8 4.1-2.4v-9.3c-1.4-.9-2.6-1.3-3.6-1.3-1.1 0-2 .6-2.8 1.7-.7 1.1-1.1 2.8-1.1 5s.3 3.8 1 4.8c.6 1 1.5 1.5 2.4 1.5z" class="st0"/></g><path d="M-17.3 333c-.1-.1-.2-.1-.3-.1.1-.2.2-.4.2-.8.1.1.3.1.4 0s0-.2-.1-.3l.3-.2c-.2 0-.3.1-.4.2-.2-.2-.7-.3-.5.1-.1.1-.2.3-.3.3 0 .3.1.4.1.7-.1.1-.2.2-.4.3-.1 0-.3.2-.4.4 0-.1 0-.2-.1-.4l-.3 1.3c-.1.1-.2.5-.1.5l-.2-.4c-.3 0-.3.5-.7.5.1.1.3.2.4.3l-.1.3c-.1.2-.3.2-.4.4-.1 0-.3 0-.3.1v.3s-.1.1-.1.2c-.2 0-.4-.1-.6 0-.3.4-.5.6-.7 1.1l.6-.1c0 .1-.1.1-.1.2l-.5.1c.2.1.3 0 .5 0-.1.5-.3.4-.4.6-.2-.1-.5-.2-.3-.4l.1-.3-.2-.2c-.2.1-.5.3-.7.4-.2.2-.3.4-.5.6l.1.3c-.2.1-.4.2-.7.4-.3.2-.4.4-.6.6v.9l.2-.2.9-.4c-.3 0-.5.1-.7.3.4-.3 1-.9 1.6-1.1h.2l.1.1c0 .1-.1.1-.1.2-.1 0-.4 0-.2.3-.1.1-.1.2-.2.4-.1-.1-.3-.2-.3-.2l.3.2c-.1 1.1-.6 1.3-1 1.6-.1-.3-.1-.6.1-1-.1.1-.3.1-.3.3l-.1.3c-.1-.1-.2-.1-.2-.2l.1-.1c.3-.3.5-.5.5-.6-.1.1-.3.2-.7.5l.3-.3c.1.1.1.2.2.3-.1 0-.1.1-.2.1s-.3 0-.4.1v.2c-.7.5-1.4 1-1.3 1.1.1.1.2.1.4 0 0 .2.1.3.3.2-.1-.1-.1-.2-.1-.4.2-.1.4-.3.6-.4 0 .2.1.5.3.7v.1c-.1 0-.2.1-.2.1.1 0 .1 0 .2.1-.1.3-.3 1-.4 1.4h-.4c-.1-.1-.2-.2-.4-.2 0 .1.1.2.2.3-.1.1-.1.2-.2.5.2 0 .5 0 .5.2l-.2.2c-.3.1-.2 0-.5-.2l-.1.3-.2-.3c-.1-.2-.3-.5-.8-.5l.3.9c0 .1-.1.1-.1.2 0 .4-.7.6-.6.9-.1.2-.2.3-.4.7-.4-.5-1.4-.3-1.3.8h.8c-.6.3-.1.6.3.7-.3.4-1.2 0-1.2.9h-.3l.1.3-.1.3c0 .1.2.2.1.4h-.3l.1.3-.1.3c-.3 0-.4.3-.5.5-.1 0-.2 0-.3.1 0 .1 0 .4.1.5l-1.5 2.2h.4c-.1.2-.3.6-.5.7l-.3.3c-.6.8-1.3 2-1.8 2.7h-.3v.4l-1.9 3.1c-.3.4-1.1.9-.8 1.3.3.3-.4.3-.4.3-.1.1.1.1.1.3-.1.1-.2.3-.3.4-.1.2-.3.4-.5.6-.2.3-.5.4-.7.7-.3.5-.3 1.2-.7 1.7v-.3s-.1 0 0 .5c0 0 .1 0 0 .1v-.1h-.1c-1 1.7-1.8 3.1-2.8 4.8 0-.2.2 0-.1.3.2.2-.3.2-.2.2-1.3 2.3-2.6 4.5-3.8 6.7-.3.1.1.3 0 .4l-.3.2-.3.6c-.1-.2.4.1 0 .2 0 .2-.2.2-.1.4.1 0-.2-.3 0-.3-.8 1.5-1.6 2.9-2.3 4.2-10.4 20.3-17.1 36.5-21.9 48.3-1.2 3-4.1 9.7-4.1 9.7l-.4-1-.6.3.5-.6s-.3-.2-.4-.6c0-.1-.1-.3-.1-.5 0 0 .1 0 .1-.1l-.3-.5-.6.2c.1-.1.1-.5.7-.5l.1-.2c0-.1-.3.2-.3 0 .1.1.1-.1.2 0l-.6-.2c-.3.1.8-.9.6-.9l-.3.3c-.1-.4-.1-.9-.2-1.3.1 0-.5.1-.3 0-.2-.3.3-.1 0-.5.1 0-.1-.3-.1-.4l-.3-.3.9-.8c-.1 0-.1.1-.2.1 0 0-.3-.5-.4-.5 0-.3.2-.2.2-.5.1-.2-.6-.4-.5-.6l-.2-.2c.4.1.6.7 1 .6l-.1-.5-.6-.4-.1-.3c0-.1.7 0 .5-.2l.2-.1c-.1 0 .1-.7 0-.6h-.1v.1s0 .1-.1.1v.2l-.4-.6c0-.4.1-.3.1-.7.3-.3.4-.6.1-1h-.1v-1.2h.3c-.1-.5-.5-.1-.7-.6l.4-.6.3-.6c-.1 0-.1.1-.2.1 0-.2-.1-.3-.1-.6h.5c-.2-.1-.2-.6-.5-.6 0-.8.2-1.2.2-2.1.1-.1-.2-.1-.1-.2 0-.1.2-.2.2-.2 0-.3 0-.6.1-.9.3 0-.5-.2-.2-.3-.2-.1.6-.2.4-.5.1-.1-.6.2-.5.1l-.1-.2.4-.1c-.1-.2.3-.6.1-.5l.3-2.7c.1 0-.4 0-.3-.1 0-.1.4-.1.3-.1 0-.2 0-.4.1-.6.2-.1-.5-.2-.4-.3-.1-.1.6-.1.5-.2.2-1.4.3-2.9.5-4.4l-.2-.1c.1-.1.3.1.2 0 .1-.7.2-1.3.3-2l-.2.1s0-.3.2-.1c.7-4.7 1.6-10.1 2.9-16.3-.6-.4-1.2-.7-1.8-.7h-.6c-2.4.4-4.8 3.6-5.9 5.5v.3c-3.4 22.2-4.5 41.8-3.1 56.6.7 2.7 3 4.3 6.1 4.5 2.7.1 5.2-1 6-2.6 2.7-5.7 5.5-12.7 8.7-20.8 1-2.5 2.3-5.8 3.9-9.8 1.1-2.8 2.4-5.8 3.7-9.1.1.1.1-.4.4-.5 0-.4.1-.3.1-.7 0-.1.1-.2.1-.3.1 0-.5-.4-.4-.5 0-.1.6.2.6.1.3-.7.6-1.5.9-2.2.4-.2.5-.5.8-.8 0-.2-.2-.2-.4-.2.1-.3-.2-.9 0-1.2.2.1.4 0 .7-.3 0-.3-.3-.2-.3-.5 0 0 .6-.1.5-.1l.6-1.5c.4 0-.4.1-.3-.4h.5c.1-.3.3-.7.4-1 .4-.1-.3-.4.2-.5.4-.9.8-1.9 1.2-2.9.2 0 .4-1 .6-.9.5-.9.6-.3.5-1.7.5-.2.4-.6.5-.9l-.1-.2c.2-.6.5-1.2.7-1.7h.4v-.7s-.1 0-.1.1c.5-1.1.9-2.2 1.4-3.4.3-.5.5-1.1.7-1.7.4-1 .8-1.9 1.2-2.8.1 0-.1-.1 0-.1l.1-.1c.1-.2.1-.3.2-.5.1 0-.3-.2-.1-.2l.3-.4h.2c-.5-.4-.1-.5.1-.5.3-.7.6-1.3.9-2-.2 0-.2-.1 0 0 .2-.4.4-.8.5-1.2.2.1.2.4.5.4l-.8-.9h.3c0-.4.9.6.6.6-.3 0 .4-.5.1-.5l-.5.1-.2-.3h-.1c.1-.1.1-.3.2-.4l.1.7c0-.2 0-.5-.1-.7.1-.2.2-.5.3-.7l.1.3c.5-.2-1.1-1.1-.4-1 .4-.5.6-1.1.7-1.4 0-.1 0-.1 0 0 0-.3 1.6.1 1.6-.2l-.3-.3.1-.4h-.5c.5-1.1 1-2.2 1.4-3.2l.2.1c-.1 0-.1-.1-.2-.1 0-.1.1-.2.1-.3.3-.2 0 .3.3.3l.3-.3v-.1h.2l-.1-.3h-.4c-.2-1.1.5-1.8 1.3-2-.3-.2.1-.7.1-1.3l-.3.3c.2-1.1.7-1.6 1.1-2.3.2.1.3.5.7.4v-.7h.1l.5.3c.2-.4-.2-.6-.5-.6l1.1-1.1c-.3 0-.5 0-.8-.1-.2 0-.4.1-.5.1.1-.7.6-.9.9-1.3.2 0 .3.1.5.1 0-.4.3-.5.2-.9h.2l.3-.3-.1-.4H-34.2c.2-.3.1-.7.2-1.1.1-.1.5-.2.7-.3-.2-.1-.4-.2-.4-.4l.5.4c.1.1.3.1.5.2l-.5-.3v-.3c0-.1.1-.1.1-.2h.6c0-.1.3-.5.2-.8l.1-.2H-32.5v.1h-.1c.2-.4 0-.6.1-1 .2-.1.8-.5.8-.9.2-.3.3-.7.5-1l.2.1c.1-.5 1-.4 1.1-.9l-.3-.2v-.2l.1-.3h-.1c.1-.2.2-.3.4-.3v-.1l.4.3c-.1-.1-.3-.2-.4-.3 0-.2-.1-.2-.3-.3.1-.2.1-.3.2-.5.2 0 .4.1.6 0 .2.1.4-.3.5-.2l-.6-.5-.4.4c.1-.1.1-.2.2-.4h-.8c.1-.2 1-.4 1.1-.6l.3.1c0-.5.3-.4.6-.5 0-.2-.2-.5-.3-.8.1-.2.4-.3.3-.6l.3.3h.1c.3.2.2-.2.6-.2-.2-.2.2-.1.2-.5h.5l-.1-.3c.2 0 .3.1.5.1l-.4-.1.2-.1c0-.2-.3-.2-.5-.2v-.4l-.3.1.1-.3h-.3v-.1c-.6 0 .2-.6.3-.8 0 .2.1.4.2.4h.2v.2c.2 0 .2-.1.2-.2v-.5l.5-.2v-.2l-.3.1-.6-.1c-.2 0-.2-.2-.2-.3s.1-.2.1-.3c0 .1.1.1.1.2.2 0 .4.1.5.1l.3.1.1.3h.4c0-.2-.2-.2-.2-.4-.1-.5.8-.1 1.1-.3-.1-.2-.3-.3-.4-.5.2-.3.3-.6.3-1.1l-.2-.1.1-.3c-.2 0-.1-.3-.1-.5l-.4-.2-.2-.1c0 .3-.2.4-.2.7v.4h-.1l-.5-.4c.1-.2.1-.4.2-.6h.1s0-.1.1-.1c.1-.1.3-.2.4-.3l.3.4c0-.2-.1-.3-.3-.5l.6-.6.1.1-.1-.1h.1-.1c.3-.3.5-.6.8-.9l-.9.8-.2-.2c0-.1 0-.2-.1-.3l.2-.3c.2 0 .5-.1.6-.4.3-.1.5-.1.8-.2l-1 .1.3-.5c.2-.1.4-.1.4-.4l-.1-.1.3-.3c.1 0 .1-.1.2-.1l-.1.1.2-.2c-.2-.2.2-.3 0-.5.5-.1.4-.1.8 0-.3.1-.5.2-.7.4.3.3.8.1 1.1-.1v-.1s-.1-.1-.1-.2h.4l-.3.2h.2c.1-.1.1-.2.2-.2h.2l-.1-.3.3.1c.6-.5-.3-.7-.8-.9.2-.5.4-1 .5-1.1-.1 0-.2 0-.3.1v-.2l.3-.1v-.2l-.2.1-.1-.3c-.1 0-.1-.1-.1-.2l.3-.1c0 .1-.1.2 0 .3l.2-.1c-.1.1-.2.2-.3.4l.3-.3-.1.3c.2.1.3.5.7.4-.1-.7.6-.3.6-.9 0-.3-.2-.6-.4-.8.1-.2.2-.3.5-.2-.7-.3.3-1.2-.3-1.3l-.3.2h-.1s.1-.1.1-.2v-.1c0-.1.1 0 .1-.1s0-.2.1-.2c0-.1.1-.1.2-.2l.3.3c.4-.1.5-.4.4-.9h-.4c0-.1.1-.1.1-.2l1.4.8c-.4-.4-.7-1-1.3-1 .1-.1.1-.2.2-.3.1 0 .2 0 .2-.1l.2-.1-.1.3c.2.1.1.4.5.4 0-.3-.2-.7-.4-1-.1.1-.2.2-.2.4h-.2v-.1h.1v-.2s.1 0 .1-.1v.1V337.6l.2-.1c.1-.1.1-.2 0-.2v-.2c0-.1.1 0 .2-.1v-.3c0-.1.1-.1.2-.2.2.1.4.1.5 0 .1-.1 0-.3-.2-.4v-.2c.2-.5.3-.8.2-.8l.2.2c.3 0 .4-.2.3-.4h-.6l.1.2h-.2v.1h.1l-.1.1.1-.3h.1l.6-1c-.2.1-.4.3-.5.4.1-.1.1-.3.2-.4.3.1.2-.4.5-.6.2.2.4.4.6.1-.1-.1.2-.2.1-.3l.4-.3c-.2 0-.3.1-.4.1m-7.3 9.2l.1-.1s.1 0 .1.1h-.2zM-35.7 372.2s0-.1 0 0zm2.9-6.8c0-.1 0-.1.1-.2-.1.1-.1.2-.1.2m4.7-15.1c0-.2.1-.2.2-.2l-.2.2m2.1.7h-.4c-.1.5-.4.8-.4 1.2 0 0-.1 0-.1-.1.2-.5.3-1 .5-1.4.1.1.2.2.4.3m3.4-6.7c-.1-.1-.2-.1-.2-.2l.2-.1v.3M52.8 355.1c0 .1-.2.3-.5.4v-.1l.5-.3-.1-.3c-.2-.1.3-.5-.1-.5-.7-.1.1-.7 0-.6h-.3c-.1.1-.3.4-.4.5v-.1l-.3-.1.3-.1c-.1-.1 0 0 .1 0 .1-.1.1-.1.2-.1h-.3c-.1-.2-.1-.5-.2-.7 0-.1.1-.1.2-.2l-.1-.7-.5-.3c-.2 0 .6-.1.5 0l-1.2-1.1c-.2-.2-.3-.5-.5-.7.1 0 .3.2.4.1l-.4-.4s-.4.1-.6-.1c-.2-.2.1-.5.1-.5-.2 0-.2-.1-.5-.1-.2-.2-.4-.3-.7-.5-.1-.1-.1 0-.2 0h.3c.2.1.1 0 0-.2l-.2.1s.2-.3 0-.2v-.1l-.3.2.2-.2h-.5l-.9-.3-.4-.1.1-.2c-.1 0-.2.1-.3.1l-.2.1c.1 0 .1-.1.2-.1h.1l-.6.1c-.1-.1 0-.1.5-.2l-.8.1c1.4 0 .7-.2-.2.2-.1 0 0 .1 0 .1-.3-.2.2.5-.4-.2 0 0-.3.2-.1.3-.2 0-.2-.2-.5-.1h-.1v.1c-3.4.6-7.7 3.4-12.8 8.4C25.4 362.3 20 369.3 18 372c-.4.5-.7 1-.8 1-.4.4-1 .9-1.8 1.5-1.2.9-2.4 1.9-2.9 2.7-.4.7-4.4 10.3-7.9 20.7-4.6 13.9-6 22.8-4.4 26.5.5 1.1 2 1.9 4.3 2.2 1.2.2 2.5.2 4 .1 3.9-.2 8.5-1.3 12.9-3.1 5.3-2.1 12.7-6.1 18.3-13.2.1-.2.3-.3.4-.5l.5-.2v-.2c.1-.3.2-.5.4-.7-.1.1-.2.1-.3.1 1.2-1.8 2.2-4.2 2.9-6.6.4-1.3.6-2.5.8-3.8.3-2.9 0-5.8-1.3-8.1-.5-.9-1.3-1.8-2.5-2.6.1-.2.2-.3.2-.3-.2 0-1.6-.8-1.8-.8h-.7l-1.2-.3-.3-.3-1.2.1h-2.3l.1-.3c.9-.6 1.7-1.3 2.5-1.9v-.1c.3-.2.5-.4.8-.6.3 0 .5.3.6.2 0-.1-.4-.5-.4-.6s.5.1.5 0c0-.3-.1-.5 0-.5l.6.3-.1-.7c.2 0 .5.6.6.6.2 0-.1-.5-.1-.7 0 0 .1 0 .1-.1.2.1-.1-.6 0-.7-.3-.4.8.4.9 0 0-.1 0-.1.1-.2.8-.7 1.5-1.5 2.2-2.2v-.1-.1c2.9-3.1 5.2-6.4 6.9-9.5.1 0-.2-.4 0-.4.1 0 .2.6.3.7.1-.1 0-.2.1-.3-.2-.1 0-.7.4-.7l-.1-.5.3-.3c.1-.1 0-.3-.1-.4.2 0 .3.6.6.5 0-.1-.1-.8-.5-.8l.1-.1.3-.1c.1 0-.4-1.1.5-.7-.1.1.3-1.2 0-1 .2-.6.4-1.2.6-1.7l.8-1.6c-.1-.1-.2-.2-.2-.3 0-.2.1-.3.1-.5v-.1-.2l.3.4c-.1 0-.2-.1-.3-.1l.3.6V359H52c.1-.5.1-1 .1-1.5.3-.3.4-1.1.2-1-.4.1.4.7.4.3l.1-1.7zm-22.7 25.4c-7.7 7.7-11.2 9-11.8 10.7-.1 0 0 .1-.1.1s.1.2 0 .2h-.1.1c-.1.3-.1.6 0 .9.3 1 1.5 1.2 2.5 1.2 1 .1 2.5-.2 4.3-.5 1.4-.3 3-.5 4.5-.7h.2c.1 0 .1 0 .1-.1 2.6-.2 5.1-.1 6.3 1.2.9.9 1.1 2.5.7 4.6-1.3 6.4-6.6 14.1-19.4 19.5-5 2.1-7.1 1.6-7.8.8 0-.1.1-.3.1-.4l.1-.3.2-.1c-.2-.2-1 .4-1.1.1-.1-.2.5-1.3.5-1.5l-.1-.1c.1-.8.3-1.7.5-2.7h.3c.1 0-.3-.8-.2-1 .1-.2.7.3.8.3 0-.3-.6-1.3-.9-1.2-.5 0 .3.3.6 0 .2-.2.5-.4.5-.6-.2-.2-.5-.3-.6-.8.5-2.1 1.2-4.1 1.9-6.7.1 0 .1 0 .2-.1h.2c0-.1-.8-.7-.8-.8s.8.3.8.2v-.4c0-.1-.3-.4-.3-.5 0-.1.4 0 .5-.1v-.1c0-.1-.2-.2-.2-.2h.4c.1-.1-.8-.9-.7-.9.1 0 .8.2.7 0v-.3c.9-3.1 2-6.3 3.1-9.4H16.4c-.1 0-.2-.1-.2-.1.3-.8.6-1.5.8-2.2l.9-.3-.4-.5c0-.3-.9-.7-.8-.9l1.3.4.1-.3v-.6c.3-.8.9-2.5.6-2.7-.4-.3.5.2.7 0 0 0-.1-.1-.1-.2-.1-.2.2-.5.4-1.2.1-.2 0-.9.1-1.1.1-.1.3.4.3.3l.6-1.2h.2c.3-.3.2-.7.4-.8v-.1V379.6c.1-.2.8-1.3.9-1.5v-.1l.4-.1-.1-.7c.1-.1.4 0 .5-.2.2 0 .1.1.3.1.1 0 0-.2-.1-.2-.1-.1.1-.1 0-.2.5-.6 1-1.3 1.7-2.2.1 0 .1 0 .2-.1 0 0 0-.1-.1-.1 4.4-5.6 12.1-14.9 15.6-16 1.2-.4 1.9-.2 2.3.4 1.4 2.3-2.7 11.7-12.8 21.8M12.7 365.4c.1-4.1-1.1-6.9-3.4-8.1-3.5-1.9-9.1-.1-15.1 3.2-.1 0-.1.1-.1.1-2 1.1-4.1 2.4-6.1 3.8h-.6c0 .1.1.2.2.2-6.4 4.4-12.4 9.7-16.1 13.3-.1.1-.2.2-.3.4-.2-.1-.9 0-.3.3-8.7 8.8-15.9 17.5-16 23.9 0 2.8.8 5.2 2.6 7.1 4.9 5.3 13.7 4.5 18.7 3.8 3.2-.4 6-.8 7.4.7.7.8 1 1.5.9 2.3-.1 1.4-1.2 3-3.2 5h-.1v.2c-3 3-8 6.9-14.8 12.2-1.3 1-2.7 2.1-4.2 3.3-.8.6-1.6 1.3-2.2 1.8-.9.8-1.6 1.5-2.2 2.2-.3.2-.5.5-.7.7-.2.3-.4.6-.6.8-.2.3-.5.6-.8.8.1.2.2.3.3.4.1.2-.2.4.1.6.1.1-.1.2-.1.4.1.1.2.1.3.2 0 .1 0 .1.1.2.1.3.3.5.6.6.2.1.5.2.8.3s.7.1 1.1.1c1 0 2.3-.2 3.6-.6l.3-.4.4.2.3-.1c.1-.1.3-.5.4-.6.1.2 0 .7-.1 1 .5.1.1-.3.6-.6l.4-.1c.8-.4-.1-1.3 1.3-.2l.1-.4.2.1c.4-.6-.2-.4-.2-.6.4-.1.6.1.5-.5.1 0 0 .6.1.6h.5v.5c.8.2.3-1 1.2-.7-.1-.2-.2-.5-.3-.6.1-.1.1-.4.2-.5s.3.2.4.1c.2.2.4.2.8.1.4-.4.1-.3 0-.7.2-.1.3-.4.5-.5.1-.1.4 0 .5-.1.3 0 .5-.2.8-.2h-.5c.2-.1.2-.5.2-.8 0-.4.6.2.7.2.2-.1.4-.3.6-.4-.1.3 0 0 .3.2.2 0 .2.1.2-.1-.3-.9.6-.5 1.2-.9-.1-.1-.5-.4-.6-.5.4-.3 1.1-.3 1.5-.6.1-.1-.1-.6 0-.7.1-.1.6.2.7.2.2 0 .3 0 .4-.1 0-.1.1-.8.2-.9.4-.3.8 0 1.2-.3.1.2.2.4.5.3v-.7c.2-.1.1-.5.3-.6.2-.1.6-.1.8-.2.6-.5 1.1-.9 1.7-1.3.1-.1-.1-.4 0-.5.1 0 .3.1.5.2 0-.2-.1-.3-.2-.4.7 0 1 .3 1.4-.3l-1 .3c.4-.3.7-.6 1.1-.9.3-.2.5-.5.8-.7l.9-.9c.2-.2.4-.3.5-.5.5-.5 1-1 1.5-1.6.4-.4.7-.8 1-1.1.5 0 .7-.4 1.1-.7l-1 .5c.2-.3.4-.5.6-.8.2-.2.4-.5.6-.7.1-.1.1-.2.2-.3.1.3.3-.3.8-.3-1.2-1.3-.2-.8-.2-1-.7-.9 1.4.7.8-.2h-.2l.1-.1c.3-.1.4-.4.7-.5-.1-.1-.2-.1-.3-.2.2-.3.4-.6.5-1 .3-.2.5-.4.5-.5l-.2-.2c.3-.6.5-1.1.7-1.7h.2c.1.1-.6-.6-.3-.8-.1-.3-.1-.5-.1-.6 0-.1.4.2.5.1 0-.1-.3-.4-.1-.4h.6c-.1-.2.2-.6 0-.5h-.1c.2-.9.2-1.8.1-2.7l.1-.1-.1.1v-.2c-.1-.5-.2-1.1-.3-1.6h.1c0-.1-.1-.1-.1-.2-.1-.4-.3-.8-.4-1.2-2.2-5-9.9-4.8-15.8-4.7-5.1.1-10 .2-11.5-3.1-.6-1.4-.7-2.9-.2-4.8.1 0 .1-.1.2-.1l-.1-.1c.1-.3.2-.5.3-.8h.3c.2-1.1.7-1.9 1.9-2.2-.2-.9-.3-1.7.9-1.7-.3-1.9 2.5-1.8 1.8-3.4 1.6-.6 2.4-3.2 3.5-3.6.3-.2.5-.6.5-1.2h1.2c.5-1.2.6-2.7 2.3-2.7-.1-.5 0-.7.5-.7.1-.6-.4-.5-.3-1.2.6-.8 1.5-1.2 1.9-1.5.2-.2 0-.6.2-.7.3-.2 1.3.4.9-.7 1.7.4 1-1.5 1.7-.9-.1-.4.1-.7.4-1.5 1.1-.3 1.8-1.1 2.8-1.5-.1-1 .3-.9 0-1.7.1-.4.8-.2.7-.8 1.2 1.2 1.1-1.2 2.5-.4-.9-.9.6-.8 1.2-1.2.4-.4-.4-1.6 1.2-1.1-.1-.3.5-1 .4-1.3.1-.1.5.1.7.1.1 0 0-.2.2-.2s.6-.2.4-.5c-.1-.2.7.3.8.3 0-.3.2-.5.4-.6 0 0-.1-.6 0-.6.1-.1.4.3.5.2.2-.2.3-.3.5-.4s.4-.1.6-.2c.1 0-.4-.7-.3-.8.1 0 .7.6.8.5.2-.2.2-.5 0-.8.2-.1.6-.1.6-.3.5.2.4-.2.5-.3l.6-.3c.5 0 .1.1.4.4 0-.3.7-1 .9-1.1.1-.1.1.1.4.1.1 0 .3-.2.4-.2.3 0-.4-1.1-.1-.4-.9-.4.6.1.5.1.3-.1.6-.2.9-.4.1 0 .2-.1.3-.1 1.7-.6 3.3-.9 4.6-.8h.4c.4 0 .7.1 1.1.2.6.2 1 .5 1.2 1.1.9 2.5-1.5 8.2-3.4 12.4-1.8 4-4.5 8.9-3.9 9.9.2.3.5.5.9.4v.3c.1.3.5-.2.6-.4v-.2l.1-.1c.6.2.8-.3.3-.4.3-.4.7-.8 1.1-1.4h.2c.3 0 .5-.1.9-.2 0-.4-.1-.7-.5-.7.1-.2.3-.5.4-.7l1-.7c-.1-.3-.2-.5-.3-.5.1-.2.2-.3.3-.5.2 0 .5-.1.5.2.3 0 .2-.4.2-.7.1 0 .2 0 .3-.1l-.4-.1v-.3H7c.5-.9 1-1.8 1.4-2.5 0 .2-.1.3-.1.5l1.1-1.7.2.2c.3-.1.1-.7.5-.7-.1-.3-.5-.2-.5-.5.5-.4.9-1.4 1-2.3l.3-.6c.1 0 .1 0 .2-.1 0 .1 0 .3-.1.4l.1-.4c.1-.2.1-.4.2-.7.1-.1.1-.3.2-.4.1-.1.3-.1.5 0 0-.9.2-1.4.2-1.9.4-1.1.6-2.1.7-2.6-.2-.5-.2-.7-.2-.9zm-20.6 54.4c0 .1.1.2.1.2H-8c.1-.1.1-.2.1-.2m16.8-44c0-.1.1-.2.1-.2l.2-.1c0 .1-.2.2-.3.3" class="st0"/></svg>